<?xml version="1.0" standalone="no"?>
<!DOCTYPE svg PUBLIC "-//W3C//DTD SVG 20010904//EN"
 "http://www.w3.org/TR/2001/REC-SVG-20010904/DTD/svg10.dtd">
<svg version="1.0" xmlns="http://www.w3.org/2000/svg"
 width="300.000000pt" height="300.000000pt" viewBox="0 0 300.000000 300.000000"
 preserveAspectRatio="xMidYMid meet">
<metadata>
Created by potrace 1.10, written by Peter Selinger 2001-2011
</metadata>
<g transform="translate(0.000000,300.000000) scale(0.100000,-0.100000)"
fill="#000000" stroke="none">
<path d="M1449 2541 c-33 -33 -37 -65 -13 -100 15 -20 15 -25 2 -38 -14 -13
-18 -12 -41 11 -14 14 -37 26 -51 26 -28 0 -76 -51 -76 -81 0 -25 -12 -24 -60
3 -37 22 -39 22 -58 5 -17 -15 -19 -24 -11 -49 5 -18 19 -43 33 -57 29 -31 86
-138 86 -160 0 -10 -27 -29 -67 -49 -66 -34 -72 -34 -87 3 -2 6 -8 6 -16 -2
-14 -13 -6 -78 10 -88 6 -3 25 6 44 20 19 14 65 41 102 60 38 19 63 34 56 35
-23 0 -2 20 21 20 18 0 19 -2 7 -10 -11 -7 0 -10 38 -10 62 0 62 -15 0 -24
-24 -4 -61 -18 -83 -31 -22 -14 -64 -36 -92 -50 -55 -26 -60 -33 -43 -65 9
-18 13 -17 60 15 172 116 394 119 573 9 57 -35 61 -36 74 -19 7 11 13 21 13
24 0 3 -26 22 -58 42 -52 34 -117 60 -212 87 -34 10 -33 10 23 11 47 1 73 -6
132 -33 41 -19 90 -46 109 -61 l35 -26 16 30 c12 24 13 36 5 51 -12 23 -4 25
35 10 19 -7 35 -6 60 5 57 23 43 35 -32 28 -67 -6 -84 -16 -89 -51 -2 -8 -4
-15 -6 -17 -4 -4 -147 72 -143 77 2 1 5 17 8 35 5 30 34 77 83 133 31 36 38
84 15 104 -23 21 -40 20 -71 -4 -25 -20 -51 -26 -49 -12 4 25 -4 46 -27 67
-33 31 -58 32 -87 2 -13 -12 -30 -21 -39 -19 -15 3 -15 7 -2 37 21 50 18 70
-17 104 -39 39 -72 40 -110 2z m71 -12 c-15 -27 -9 -32 25 -19 23 9 26 8 21
-6 -3 -8 -6 -27 -6 -40 0 -13 -4 -24 -10 -24 -5 0 -10 6 -10 14 0 23 -40 26
-62 4 -23 -23 -23 -23 -31 20 -7 35 1 39 35 21 22 -12 22 -14 2 36 -5 11 1 15
20 15 24 0 26 -2 16 -21z m3 -106 c9 -21 24 -50 34 -66 17 -25 17 -29 2 -55
-9 -15 -21 -26 -27 -24 -16 3 -15 -31 0 -46 7 -7 24 -12 40 -12 31 0 53 30 45
61 -3 10 1 23 9 30 8 6 12 22 9 36 -3 19 0 23 11 19 7 -3 14 -1 14 4 0 6 -12
10 -27 10 -27 1 -27 1 -9 15 27 20 50 19 71 -5 17 -19 17 -20 -14 -49 -32 -30
-44 -55 -13 -29 33 29 39 29 35 0 -8 -51 -11 -54 -34 -42 -18 10 -20 9 -17 -7
2 -10 10 -17 18 -15 9 2 9 -4 -4 -23 -16 -24 -16 -25 5 -25 31 0 59 28 59 60
0 20 8 31 34 45 19 11 37 27 39 37 6 22 30 23 47 3 10 -12 9 -15 -7 -15 -11 0
-28 -10 -39 -22 l-19 -21 28 18 c40 26 44 12 5 -16 -38 -27 -49 -40 -41 -51 2
-5 -2 -19 -11 -32 -12 -19 -28 -25 -78 -32 -59 -7 -61 -8 -28 -15 19 -4 42 -3
52 2 23 12 24 12 23 -13 0 -25 -31 -75 -40 -66 -3 3 -1 18 5 33 13 35 8 41
-15 19 -12 -13 -30 -17 -61 -15 -24 1 -48 0 -54 -4 -5 -3 -43 -8 -83 -10 -50
-2 -66 -1 -52 6 13 6 -8 8 -67 5 -88 -5 -110 2 -88 28 8 11 8 15 -2 19 -7 3 6
2 29 0 23 -3 50 -2 60 2 10 4 43 7 73 5 79 -3 59 6 -30 13 -52 5 -69 3 -55 -3
14 -7 4 -8 -35 -4 -58 6 -84 26 -96 71 -3 13 -22 33 -42 45 -19 12 -30 24 -23
26 7 2 22 -4 34 -14 l22 -19 -19 23 c-11 12 -26 22 -33 22 -8 0 -13 6 -10 13
5 16 43 16 39 -1 -1 -8 15 -20 38 -29 41 -16 44 -21 40 -61 -2 -27 25 -51 58
-52 18 0 22 4 18 24 -6 32 29 43 44 15 8 -13 21 -19 46 -19 28 0 37 5 47 28 6
15 17 33 24 40 17 17 16 22 -2 22 -8 0 -15 -6 -15 -14 0 -29 -28 -25 -41 6
-11 28 -10 35 14 78 15 27 27 55 27 64 0 28 16 17 33 -21z m-140 -24 l21 -12
-24 -9 c-17 -6 -21 -11 -12 -17 9 -6 7 -12 -8 -26 -18 -16 -20 -16 -26 -1 -3
9 -10 16 -15 16 -6 0 -5 -9 1 -20 7 -13 18 -19 28 -16 9 3 23 2 31 -3 12 -8
11 -12 -4 -28 -10 -10 -22 -18 -26 -18 -4 0 -11 -3 -15 -7 -11 -12 -34 11 -27
28 3 8 0 28 -7 45 -11 27 -10 32 10 54 26 28 41 30 73 14z m277 -299 c23 -7
22 -8 -10 -8 -19 0 -46 4 -60 8 -23 7 -22 8 10 8 19 0 46 -4 60 -8z m-140 -21
c0 -5 5 -7 10 -4 6 3 10 -3 10 -14 0 -23 -16 -37 -23 -19 -3 10 -8 10 -21 -1
-15 -13 -19 -13 -27 0 -11 17 -12 42 -1 35 4 -2 14 -1 22 5 20 12 30 11 30 -2z
m-70 -38 c0 -4 -24 -14 -52 -20 -29 -7 -64 -15 -78 -18 -40 -9 -11 13 40 31
51 17 90 20 90 7z m217 -13 c57 -21 107 -48 100 -54 -1 -2 -30 7 -62 21 -33
13 -81 27 -107 30 -27 4 -48 11 -48 16 0 16 58 10 117 -13z m-387 -43 c0 -2
-19 -14 -42 -25 l-43 -21 28 26 c25 22 57 34 57 20z"/>
<path d="M1558 2183 c-30 -3 -38 -9 -38 -24 0 -13 -7 -19 -22 -19 -17 0 -19
-3 -10 -12 13 -13 42 6 42 28 0 9 13 14 38 15 20 0 55 4 77 8 l40 9 -45 -1
c-25 0 -62 -2 -82 -4z"/>
<path d="M950 2081 c0 -23 64 -41 103 -30 51 14 56 29 10 29 -21 0 -55 3 -75
6 -26 5 -38 3 -38 -5z"/>
<path d="M2050 2051 c-13 -32 -8 -97 9 -114 10 -10 20 118 10 135 -3 5 -12 -5
-19 -21z"/>
<path d="M930 1999 c1 -69 2 -72 15 -49 19 33 19 94 0 110 -13 11 -15 3 -15
-61z"/>
<path d="M1044 2014 c-4 -16 -12 -23 -20 -20 -23 9 -16 -10 7 -20 19 -9 17
-10 -15 -10 -20 0 -41 -5 -48 -12 -10 -10 -6 -11 17 -7 20 4 43 -1 70 -15 47
-24 56 -25 49 -5 -4 8 -12 15 -20 15 -20 0 -37 39 -30 71 7 36 -1 38 -10 3z"/>
<path d="M1946 1996 c2 -37 -2 -46 -22 -57 -13 -7 -24 -16 -24 -22 0 -5 3 -7
8 -5 53 28 89 39 111 34 25 -6 25 -6 6 9 -13 10 -30 13 -47 9 -22 -4 -27 -3
-22 10 3 8 11 13 18 10 7 -3 19 3 27 12 13 16 12 16 -9 5 -20 -11 -23 -9 -32
14 -5 14 -11 25 -12 25 -2 0 -2 -20 -2 -44z"/>
<path d="M1397 1979 c-60 -14 -179 -73 -219 -108 -22 -19 -39 -27 -43 -21 -3
5 -3 15 0 20 7 12 -22 26 -33 16 -3 -4 -1 -11 7 -15 10 -6 9 -10 -4 -14 -10
-5 -18 0 -23 14 -8 20 -8 19 -29 -3 -60 -64 -111 -176 -137 -299 -9 -42 -18
-63 -26 -61 -7 2 -16 -2 -20 -8 -4 -7 -16 -6 -36 4 -29 15 -74 12 -74 -5 0 -8
16 -11 95 -14 17 -1 41 5 53 14 19 11 28 12 43 3 17 -11 19 -9 19 28 0 75 59
216 124 294 42 51 37 10 -8 -57 -45 -68 -82 -159 -71 -177 3 -5 2 -10 -3 -10
-15 0 -13 -164 2 -238 20 -98 68 -186 136 -253 63 -62 173 -123 240 -134 39
-7 45 -4 79 29 l37 36 34 -36 c31 -32 39 -35 73 -31 65 9 183 72 246 132 140
133 188 358 118 548 -13 37 -23 67 -21 67 2 0 -5 9 -16 20 -12 12 -18 25 -15
29 3 5 -8 23 -24 40 -16 17 -26 31 -23 31 17 0 -89 83 -139 110 -99 53 -241
73 -342 49z m271 -65 c111 -44 180 -101 237 -194 127 -210 103 -457 -60 -615
-68 -66 -133 -106 -203 -125 -41 -11 -44 -10 -84 25 -48 41 -61 43 -91 14 -51
-49 -59 -51 -120 -30 -102 35 -201 118 -255 213 -78 135 -78 356 -1 494 57
103 128 164 251 214 63 25 86 29 166 30 78 0 105 -4 160 -26z m-588 -82 c0 -5
-10 -17 -22 -28 -21 -19 -63 -103 -100 -199 l-19 -50 4 40 c7 68 96 245 123
245 8 0 14 -4 14 -8z"/>
<path d="M1370 1875 c-120 -34 -211 -113 -255 -222 -48 -117 -56 -133 -67
-133 -7 0 -7 -4 -1 -12 6 -7 13 -26 17 -42 4 -15 15 -47 25 -70 11 -22 30 -66
43 -96 32 -72 90 -140 142 -166 87 -46 112 -52 207 -52 208 -1 340 75 412 238
11 25 28 65 39 89 25 55 21 105 -15 181 -14 30 -34 75 -45 100 -29 65 -86 117
-171 158 -67 32 -83 36 -175 39 -69 2 -118 -2 -156 -12z m320 -51 c90 -43 141
-98 180 -192 18 -42 41 -91 52 -109 18 -30 18 -34 3 -63 -9 -18 -31 -67 -50
-111 -41 -98 -80 -148 -142 -181 -82 -45 -155 -61 -257 -56 -77 3 -101 9 -156
35 -102 50 -142 95 -185 208 -14 39 -35 85 -45 103 -20 33 -20 33 0 72 11 21
29 63 41 92 30 77 64 122 125 164 87 60 142 75 264 71 93 -2 112 -6 170 -33z"/>
<path d="M1405 1826 c-27 -7 -68 -21 -90 -31 -56 -27 -130 -104 -145 -151 -7
-21 -25 -64 -41 -95 l-28 -57 28 -53 c16 -30 35 -73 42 -97 7 -24 30 -63 52
-88 110 -125 328 -150 500 -56 60 32 91 71 117 147 11 32 31 78 44 102 l25 43
-34 68 c-19 37 -42 86 -51 110 -50 124 -251 199 -419 158z m228 -26 c50 -15
80 -33 121 -71 31 -28 56 -59 56 -69 0 -11 17 -53 39 -94 l38 -75 -27 -11
c-15 -6 -62 -46 -105 -88 -42 -42 -81 -77 -85 -77 -4 0 -20 -15 -35 -33 -37
-44 -75 -62 -132 -62 -59 0 -67 5 -209 136 -62 56 -126 110 -143 119 -18 9
-31 19 -29 23 2 4 17 34 34 67 17 33 34 72 37 86 14 56 84 115 178 149 73 26
178 26 262 0z m233 -362 c-14 -24 -34 -68 -45 -99 -26 -67 -67 -109 -146 -146
-54 -25 -71 -28 -165 -28 -58 0 -114 4 -125 9 -11 5 -26 10 -33 12 -20 4 -94
54 -119 80 -11 13 -27 40 -33 61 -7 21 -23 59 -37 86 -26 52 -21 59 17 22 54
-52 193 -171 231 -196 21 -14 37 -28 34 -30 -9 -10 122 8 145 19 23 12 24 12
6 -2 -11 -9 -24 -16 -30 -16 -5 0 -7 -3 -4 -6 8 -7 64 22 74 37 5 8 3 9 -7 4
-8 -4 -2 5 14 22 15 16 25 32 22 36 -3 4 -2 5 2 2 3 -3 13 1 22 7 9 7 0 -5
-18 -25 -19 -20 -30 -37 -25 -37 12 0 55 48 58 64 1 6 5 17 9 24 9 13 166 142
173 142 3 0 -6 -19 -20 -42z"/>
<path d="M1433 1755 c-30 -13 -283 -245 -276 -254 6 -8 57 34 161 133 173 165
203 165 375 -3 102 -100 139 -130 162 -131 23 0 -250 245 -289 260 -37 14 -95
12 -133 -5z"/>
<path d="M1463 1729 c-41 -12 -88 -70 -109 -133 -26 -77 -15 -203 22 -263 41
-66 75 -88 134 -88 91 0 149 79 158 211 8 129 -38 238 -113 270 -39 16 -47 16
-92 3z m110 -71 c107 -108 94 -322 -24 -383 -52 -27 -123 7 -156 75 -32 64
-20 221 21 283 20 31 77 67 104 67 7 0 32 -19 55 -42z"/>
<path d="M1764 1367 c-21 -23 -28 -32 -14 -21 14 12 30 20 37 17 11 -4 29 34
21 43 -2 2 -22 -15 -44 -39z"/>
<path d="M960 1920 c-12 -7 -12 -13 -1 -33 11 -22 10 -29 -13 -65 -14 -23 -26
-44 -26 -47 0 -3 -8 -24 -19 -48 -10 -23 -24 -56 -31 -74 -15 -40 -60 -57
-123 -48 l-44 7 -51 -62 c-29 -34 -52 -67 -52 -74 0 -7 9 -21 20 -31 11 -10
20 -26 20 -35 0 -10 18 -36 40 -59 37 -38 42 -40 83 -35 58 8 83 -16 133 -126
21 -47 49 -100 62 -118 26 -37 23 -62 -8 -62 -30 0 -34 -23 -15 -74 10 -25 15
-52 11 -61 -3 -9 -2 -13 4 -10 6 3 10 23 11 43 0 20 3 31 6 25 5 -15 23 -17
23 -4 0 5 -8 12 -18 15 -17 6 -47 45 -39 52 2 3 15 0 29 -5 18 -7 36 -4 68 10
24 11 41 21 39 22 -2 1 -13 9 -23 17 -18 14 -18 13 -12 -10 6 -23 4 -22 -23 9
-35 40 -90 142 -120 222 -12 31 -30 64 -40 73 -26 24 -96 33 -118 15 -13 -11
-17 -11 -21 -1 -2 7 -14 25 -26 40 -49 61 -52 57 39 57 68 0 78 -2 57 -11 -19
-7 -23 -12 -13 -18 8 -5 33 1 62 15 32 14 53 19 59 13 5 -5 16 -47 24 -93 16
-89 62 -197 115 -269 27 -36 35 -41 44 -30 27 32 44 39 56 24 9 -11 8 -17 -4
-30 -9 -9 -15 -22 -13 -28 3 -7 12 -1 23 15 17 26 17 29 0 47 -9 10 -23 16
-30 14 -15 -6 -66 64 -100 139 -25 54 -50 185 -42 217 3 13 0 17 -9 13 -8 -3
-14 -10 -14 -15 0 -6 -7 -5 -16 3 -15 13 -35 14 -224 17 l-95 2 33 20 c18 11
40 37 49 57 10 21 18 40 20 42 1 1 12 -4 25 -13 12 -9 34 -16 49 -16 33 0 90
38 106 70 6 14 29 63 51 110 22 47 55 105 75 130 20 24 33 48 31 52 -7 11 -66
10 -84 -2z"/>
<path d="M1960 1918 c-16 -7 -20 -12 -12 -15 8 -3 19 0 25 6 6 6 15 11 21 11
5 0 1 -6 -10 -14 -19 -14 -18 -15 7 -43 38 -41 72 -99 103 -177 42 -105 107
-147 175 -113 30 15 31 15 37 -8 6 -25 59 -78 87 -88 25 -9 21 6 -10 43 -85
101 -74 93 -126 82 -42 -8 -51 -7 -80 12 -17 12 -36 32 -42 46 -5 13 -31 66
-57 118 -47 93 -51 112 -22 112 19 0 18 10 -3 26 -21 16 -58 17 -93 2z"/>
<path d="M1916 1892 c-3 -5 -1 -12 6 -14 16 -6 0 -28 -20 -28 -12 0 -13 3 -5
8 9 6 7 11 -6 19 -29 18 -22 -17 9 -43 56 -49 139 -228 140 -302 0 -29 3 -32
20 -27 12 4 27 1 35 -5 36 -30 -27 185 -80 275 -48 80 -90 131 -99 117z m41
-59 c38 -49 121 -248 109 -261 -3 -2 -12 20 -20 48 -17 58 -77 170 -101 190
-15 12 -21 40 -9 40 4 0 13 -8 21 -17z"/>
<path d="M2160 1499 l-35 -20 55 7 c65 7 81 15 54 25 -28 11 -36 10 -74 -12z"/>
<path d="M2046 1435 c8 -44 -21 -171 -56 -240 -33 -66 -67 -111 -77 -102 -3 4
0 13 7 22 27 33 2 12 -40 -32 -25 -26 -41 -44 -36 -40 5 4 16 -2 23 -13 10
-14 24 -20 46 -18 18 1 42 -4 54 -10 26 -14 82 -15 103 -2 13 8 12 10 -3 10
-31 0 -30 28 1 77 17 27 44 82 61 124 40 97 58 114 124 115 48 0 54 3 77 37
14 20 31 36 38 37 6 0 12 9 12 19 0 11 5 23 11 27 8 4 7 9 -2 15 -19 12 -166
11 -207 0 -20 -6 -32 -6 -32 0 0 5 -8 9 -17 9 -25 -1 29 -47 63 -56 41 -10 53
13 13 24 -45 13 -7 14 48 2 31 -7 52 -6 83 5 l41 15 -40 -47 c-23 -25 -41 -52
-41 -60 0 -11 -5 -13 -17 -8 -38 17 -79 15 -109 -3 -24 -16 -37 -38 -63 -111
-19 -54 -50 -115 -76 -150 -50 -67 -59 -75 -79 -64 -12 6 -8 17 20 53 75 97
120 213 128 330 l5 65 -35 0 c-32 0 -34 -1 -28 -30z m-116 -393 c0 -22 -30
-25 -51 -6 l-20 18 23 17 c21 16 23 16 35 1 7 -10 13 -23 13 -30z"/>
<path d="M1150 1031 c0 -13 -46 -62 -52 -56 -10 11 -18 -74 -9 -97 l10 -23 0
23 c1 29 25 29 65 -1 38 -28 152 -72 226 -86 30 -6 69 -19 87 -28 30 -16 33
-16 52 1 11 10 59 26 110 36 84 17 213 68 226 90 9 15 33 12 37 -5 2 -9 8 -12
17 -6 15 10 6 71 -11 71 -5 0 -24 -11 -40 -26 -62 -52 -222 -114 -293 -114
-24 0 -39 -7 -53 -24 l-19 -25 -44 59 c-32 43 -50 59 -68 60 l-25 0 29 30 c23
24 25 30 11 30 -10 0 -14 -4 -10 -12 21 -33 -145 33 -208 83 -21 16 -38 25
-38 20z m92 -116 c25 -13 73 -32 107 -41 33 -10 70 -28 82 -41 l22 -23 -24 0
c-61 0 -217 63 -287 117 -27 20 -31 28 -21 39 10 12 16 11 43 -6 17 -12 52
-32 78 -45z"/>
<path d="M1795 990 c-45 -33 -136 -70 -168 -70 -18 0 -19 2 -7 10 12 8 10 10
-9 10 l-25 0 29 -30 c27 -28 28 -30 7 -30 -13 0 -40 20 -68 51 l-48 50 -39
-39 -40 -40 38 -45 37 -45 31 37 c17 20 33 38 34 40 2 3 9 -1 15 -7 9 -9 7
-16 -5 -30 -23 -25 -22 -39 1 -19 10 10 51 28 90 41 82 28 164 70 188 97 14
15 14 21 4 34 -16 19 -17 19 -65 -15z m-267 -75 l22 -25 -22 -30 c-12 -17 -23
-30 -24 -30 -2 0 -12 14 -24 30 -21 29 -21 32 -6 55 21 31 27 31 54 0z"/>
<path d="M1025 974 l-30 -15 34 4 33 4 -36 -34 c-20 -19 -36 -35 -36 -37 0 -1
12 -2 27 -1 22 0 31 7 39 30 6 17 15 38 19 48 9 21 -8 21 -50 1z"/>
<path d="M1927 984 c-3 -4 -1 -16 5 -27 6 -12 14 -32 19 -46 7 -25 7 -25 8 -3
1 13 5 20 11 17 6 -4 8 -11 5 -16 -12 -19 28 -8 46 13 25 28 24 28 -11 15 -25
-10 -33 -9 -47 7 -17 18 -17 18 15 13 18 -4 32 -2 32 3 0 6 -9 10 -19 10 -11
0 -23 5 -26 10 -7 11 -28 13 -38 4z"/>
<path d="M2062 978 c-17 -21 -25 -85 -13 -105 9 -16 10 -15 11 8 0 15 7 43 15
62 8 20 15 39 15 42 0 10 -17 5 -28 -7z"/>
<path d="M987 868 c-22 -8 -26 -14 -21 -31 10 -33 14 -34 32 -9 15 19 24 22
57 17 35 -6 38 -5 25 8 -21 20 -60 27 -93 15z"/>
<path d="M1943 868 c-13 -6 -23 -15 -23 -19 0 -15 22 -21 33 -10 16 16 52 14
67 -4 16 -19 30 -19 30 1 0 8 -16 22 -35 30 -40 16 -42 16 -72 2z"/>
<path d="M1535 668 c-11 -6 -22 -14 -25 -18 -3 -4 -27 -10 -55 -14 -60 -8 -56
-8 -124 -3 -30 2 -70 1 -88 -3 -18 -5 -51 -3 -72 2 -89 23 -137 -71 -72 -141
32 -34 65 -40 97 -17 17 13 21 12 37 -1 15 -14 17 -14 17 -1 0 24 35 28 49 6
12 -20 13 -20 28 2 l15 21 23 -21 c15 -14 25 -18 30 -10 4 6 15 8 25 5 11 -3
20 0 24 10 8 22 31 18 49 -7 14 -20 18 -21 27 -8 9 13 11 13 20 0 8 -12 12
-12 18 -2 7 10 15 10 36 2 39 -14 67 -12 88 7 17 15 19 15 36 0 23 -21 75 -22
92 -2 7 8 18 15 25 15 7 0 18 -7 25 -15 14 -17 20 -18 39 -6 9 6 15 32 16 77
3 59 0 70 -21 91 -27 27 -59 30 -68 7 -5 -12 -14 -15 -40 -10 -19 4 -45 1 -60
-5 -29 -14 -73 0 -102 32 -19 21 -59 24 -89 7z m65 -38 c0 -28 2 -30 25 -24
52 13 83 -46 49 -94 -12 -18 -24 -22 -55 -20 l-39 3 0 83 c0 48 4 82 10 82 6
0 10 -14 10 -30z m270 -5 c0 -8 7 -15 15 -15 8 0 15 -7 15 -15 0 -8 -9 -15
-20 -15 -22 0 -23 -3 -14 -37 4 -14 14 -23 26 -23 11 0 18 -5 16 -12 -6 -16
-29 -21 -47 -9 -15 10 -31 93 -23 123 5 22 32 24 32 3z m-678 -32 c35 -32 10
-103 -38 -103 -29 0 -64 32 -64 60 0 26 34 60 62 60 12 0 30 -7 40 -17z m186
4 c14 -10 17 -107 2 -107 -5 0 -10 17 -10 38 0 41 -15 63 -36 55 -9 -3 -14
-21 -14 -49 0 -24 -4 -44 -10 -44 -5 0 -10 17 -10 39 0 39 -20 68 -40 56 -5
-3 -10 -26 -10 -51 0 -32 -4 -44 -15 -44 -20 0 -20 68 0 96 12 18 24 21 72 20
32 -1 64 -5 71 -9z m120 1 c16 -20 19 -100 5 -105 -9 -3 -13 9 -13 40 0 32 -5
47 -16 51 -26 10 -45 -13 -42 -52 2 -21 -2 -37 -9 -39 -10 -3 -13 10 -13 50 0
29 2 56 5 58 10 11 73 8 83 -3z m62 -48 c0 -47 -3 -60 -15 -60 -12 0 -15 13
-15 60 0 47 3 60 15 60 12 0 15 -13 15 -60z m242 43 c37 -33 11 -103 -39 -103
-29 0 -63 33 -63 62 0 50 63 76 102 41z"/>
<path d="M1612 578 c-18 -18 -14 -46 7 -58 15 -7 23 -6 35 6 20 19 20 29 0 48
-19 19 -26 20 -42 4z"/>
<path d="M1133 583 c-25 -10 -9 -73 18 -73 10 0 39 30 39 40 0 11 -29 40 -38
39 -4 0 -13 -3 -19 -6z"/>
<path d="M1736 574 c-9 -8 -16 -19 -16 -24 0 -11 29 -40 40 -40 11 0 40 29 40
40 0 11 -29 40 -40 40 -5 0 -16 -7 -24 -16z"/>
</g>
</svg>
